# xmcd CD database file
#
# Track frame offsets:
#	150
#	15489
#	30932
#	44665
#	56324
#	69910
#	83675
#	104792
#	116345
#	126731
#	140119
#	151165
#	158559
#	169271
#	181892
#
# Disc length: 2596 seconds
#
# Revision: 6
# Processed by: cddbd v1.4PL0 Copyright (c) Steve Scherf et al.
# Submitted via: CDex 1.40Release
#
DISCID=c10a220f
DTITLE=The Windy City Strugglers - On Top Of The World
DYEAR=1998
DGENRE=Blues
TTITLE0=On The Road Again
TTITLE1=Fourth Street Mess Around
TTITLE2=Money Is King
TTITLE3=Good Grief
TTITLE4=Sitting on Top Of The World
TTITLE5=Bring It On Home
TTITLE6=Can't Get Back
TTITLE7=KC Moan
TTITLE8=Downtown Blues
TTITLE9=Viola Lee Blues
TTITLE10=Jole Blon
TTITLE11=River Of Jordan
TTITLE12=How Could I Do It
TTITLE13=Broke Down Engine
TTITLE14=I Call My Baby Sugar
EXTD=(c) and (p) 1998 Red Rocks Records\nRRR002 YEAR: 1998 ID3G: 0
EXTT0=
EXTT1=
EXTT2=
EXTT3=
EXTT4=
EXTT5=
EXTT6=
EXTT7=
EXTT8=
EXTT9=
EXTT10=
EXTT11=
EXTT12=
EXTT13=
EXTT14=
PLAYORDER=
